<svg id="visual" viewBox="0 0 900 600" width="900" height="600" xmlns="http://www.w3.org/2000/svg" xmlns:xlink="http://www.w3.org/1999/xlink" version="1.1"><rect x="0" y="0" width="900" height="600" fill="#FFFFFF"></rect><defs><linearGradient id="grad1_0" x1="33.3%" y1="0%" x2="100%" y2="100%"><stop offset="20%" stop-color="#4facf7" stop-opacity="1"></stop><stop offset="80%" stop-color="#4facf7" stop-opacity="1"></stop></linearGradient></defs><defs><linearGradient id="grad1_1" x1="33.3%" y1="0%" x2="100%" y2="100%"><stop offset="20%" stop-color="#4facf7" stop-opacity="1"></stop><stop offset="80%" stop-color="#98c7fa" stop-opacity="1"></stop></linearGradient></defs><defs><linearGradient id="grad1_2" x1="33.3%" y1="0%" x2="100%" y2="100%"><stop offset="20%" stop-color="#cee2fd" stop-opacity="1"></stop><stop offset="80%" stop-color="#98c7fa" stop-opacity="1"></stop></linearGradient></defs><defs><linearGradient id="grad1_3" x1="33.3%" y1="0%" x2="100%" y2="100%"><stop offset="20%" stop-color="#cee2fd" stop-opacity="1"></stop><stop offset="80%" stop-color="#ffffff" stop-opacity="1"></stop></linearGradient></defs><defs><linearGradient id="grad2_0" x1="0%" y1="0%" x2="66.7%" y2="100%"><stop offset="20%" stop-color="#4facf7" stop-opacity="1"></stop><stop offset="80%" stop-color="#4facf7" stop-opacity="1"></stop></linearGradient></defs><defs><linearGradient id="grad2_1" x1="0%" y1="0%" x2="66.7%" y2="100%"><stop offset="20%" stop-color="#98c7fa" stop-opacity="1"></stop><stop offset="80%" stop-color="#4facf7" stop-opacity="1"></stop></linearGradient></defs><defs><linearGradient id="grad2_2" x1="0%" y1="0%" x2="66.7%" y2="100%"><stop offset="20%" stop-color="#98c7fa" stop-opacity="1"></stop><stop offset="80%" stop-color="#cee2fd" stop-opacity="1"></stop></linearGradient></defs><defs><linearGradient id="grad2_3" x1="0%" y1="0%" x2="66.7%" y2="100%"><stop offset="20%" stop-color="#ffffff" stop-opacity="1"></stop><stop offset="80%" stop-color="#cee2fd" stop-opacity="1"></stop></linearGradient></defs><g transform="translate(900, 0)"><path d="M0 405.6C-74.6 397.1 -149.1 388.6 -202.8 351.3C-256.5 314 -289.2 247.8 -319.6 184.5C-349.9 121.2 -377.8 60.6 -405.6 0L0 0Z" fill="#e7f1fe"></path><path d="M0 304.2C-55.9 297.8 -111.9 291.4 -152.1 263.5C-192.4 235.5 -216.9 185.9 -239.7 138.4C-262.4 90.9 -283.3 45.4 -304.2 0L0 0Z" fill="#b4d4fc"></path><path d="M0 202.8C-37.3 198.6 -74.6 194.3 -101.4 175.6C-128.2 157 -144.6 123.9 -159.8 92.3C-174.9 60.6 -188.9 30.3 -202.8 0L0 0Z" fill="#78b9f9"></path><path d="M0 101.4C-18.6 99.3 -37.3 97.1 -50.7 87.8C-64.1 78.5 -72.3 62 -79.9 46.1C-87.5 30.3 -94.4 15.1 -101.4 0L0 0Z" fill="#4facf7"></path></g><g transform="translate(0, 600)"><path d="M0 -405.6C60.8 -378.2 121.7 -350.8 185 -320.4C248.3 -290.1 314.1 -256.7 351.3 -202.8C388.5 -148.9 397 -74.5 405.6 0L0 0Z" fill="#e7f1fe"></path><path d="M0 -304.2C45.6 -283.7 91.3 -263.1 138.7 -240.3C186.2 -217.5 235.6 -192.5 263.5 -152.1C291.3 -111.7 297.8 -55.8 304.2 0L0 0Z" fill="#b4d4fc"></path><path d="M0 -202.8C30.4 -189.1 60.8 -175.4 92.5 -160.2C124.2 -145 157 -128.4 175.6 -101.4C194.2 -74.5 198.5 -37.2 202.8 0L0 0Z" fill="#78b9f9"></path><path d="M0 -101.4C15.2 -94.6 30.4 -87.7 46.2 -80.1C62.1 -72.5 78.5 -64.2 87.8 -50.7C97.1 -37.2 99.3 -18.6 101.4 0L0 0Z" fill="#4facf7"></path></g></svg>